G04 #@! TF.FileFunction,Legend,Top*
%FSLAX46Y46*%
G04 Gerber Fmt 4.6, Leading zero omitted, Abs format (unit mm)*
G04 Created by KiCad (PCBNEW 4.0.1-stable) date Sun 07 Feb 2016 03:44:16 PM PST*
%MOMM*%
G01*
G04 APERTURE LIST*
%ADD10C,0.100000*%
%ADD11C,0.150000*%
%ADD12C,0.152400*%
%ADD13C,0.050000*%
G04 APERTURE END LIST*
D10*
X149012858Y-94902857D02*
X148898572Y-94845714D01*
X148841429Y-94731429D01*
X148841429Y-93702857D01*
X149984286Y-94102857D02*
X149984286Y-94902857D01*
X149470000Y-94102857D02*
X149470000Y-94731429D01*
X149527143Y-94845714D01*
X149641429Y-94902857D01*
X149812857Y-94902857D01*
X149927143Y-94845714D01*
X149984286Y-94788571D01*
X150555714Y-94902857D02*
X150555714Y-94102857D01*
X150555714Y-94217143D02*
X150612857Y-94160000D01*
X150727143Y-94102857D01*
X150898571Y-94102857D01*
X151012857Y-94160000D01*
X151070000Y-94274286D01*
X151070000Y-94902857D01*
X151070000Y-94274286D02*
X151127143Y-94160000D01*
X151241429Y-94102857D01*
X151412857Y-94102857D01*
X151527143Y-94160000D01*
X151584286Y-94274286D01*
X151584286Y-94902857D01*
X152327143Y-94902857D02*
X152212857Y-94845714D01*
X152155714Y-94788571D01*
X152098571Y-94674286D01*
X152098571Y-94331429D01*
X152155714Y-94217143D01*
X152212857Y-94160000D01*
X152327143Y-94102857D01*
X152498571Y-94102857D01*
X152612857Y-94160000D01*
X152670000Y-94217143D01*
X152727143Y-94331429D01*
X152727143Y-94674286D01*
X152670000Y-94788571D01*
X152612857Y-94845714D01*
X152498571Y-94902857D01*
X152327143Y-94902857D01*
X153184285Y-94845714D02*
X153298571Y-94902857D01*
X153527143Y-94902857D01*
X153641428Y-94845714D01*
X153698571Y-94731429D01*
X153698571Y-94674286D01*
X153641428Y-94560000D01*
X153527143Y-94502857D01*
X153355714Y-94502857D01*
X153241428Y-94445714D01*
X153184285Y-94331429D01*
X153184285Y-94274286D01*
X153241428Y-94160000D01*
X153355714Y-94102857D01*
X153527143Y-94102857D01*
X153641428Y-94160000D01*
X155355715Y-93702857D02*
X155470000Y-93702857D01*
X155584286Y-93760000D01*
X155641429Y-93817143D01*
X155698572Y-93931429D01*
X155755715Y-94160000D01*
X155755715Y-94445714D01*
X155698572Y-94674286D01*
X155641429Y-94788571D01*
X155584286Y-94845714D01*
X155470000Y-94902857D01*
X155355715Y-94902857D01*
X155241429Y-94845714D01*
X155184286Y-94788571D01*
X155127143Y-94674286D01*
X155070000Y-94445714D01*
X155070000Y-94160000D01*
X155127143Y-93931429D01*
X155184286Y-93817143D01*
X155241429Y-93760000D01*
X155355715Y-93702857D01*
X156270000Y-94788571D02*
X156327143Y-94845714D01*
X156270000Y-94902857D01*
X156212857Y-94845714D01*
X156270000Y-94788571D01*
X156270000Y-94902857D01*
X157470001Y-94902857D02*
X156784286Y-94902857D01*
X157127144Y-94902857D02*
X157127144Y-93702857D01*
X157012858Y-93874286D01*
X156898572Y-93988571D01*
X156784286Y-94045714D01*
X158498572Y-94902857D02*
X158498572Y-94274286D01*
X158441429Y-94160000D01*
X158327143Y-94102857D01*
X158098572Y-94102857D01*
X157984286Y-94160000D01*
X158498572Y-94845714D02*
X158384286Y-94902857D01*
X158098572Y-94902857D01*
X157984286Y-94845714D01*
X157927143Y-94731429D01*
X157927143Y-94617143D01*
X157984286Y-94502857D01*
X158098572Y-94445714D01*
X158384286Y-94445714D01*
X158498572Y-94388571D01*
X149755715Y-96111429D02*
X149698573Y-96054286D01*
X149584287Y-95997143D01*
X149470001Y-95997143D01*
X149355715Y-96054286D01*
X149298573Y-96111429D01*
X149241430Y-96225714D01*
X149241430Y-96340000D01*
X149298573Y-96454286D01*
X149355715Y-96511429D01*
X149470001Y-96568571D01*
X149584287Y-96568571D01*
X149698573Y-96511429D01*
X149755715Y-96454286D01*
X149755715Y-95997143D02*
X149755715Y-96454286D01*
X149812858Y-96511429D01*
X149870001Y-96511429D01*
X149984287Y-96454286D01*
X150041430Y-96340000D01*
X150041430Y-96054286D01*
X149927144Y-95882857D01*
X149755715Y-95768571D01*
X149527144Y-95711429D01*
X149298573Y-95768571D01*
X149127144Y-95882857D01*
X149012858Y-96054286D01*
X148955715Y-96282857D01*
X149012858Y-96511429D01*
X149127144Y-96682857D01*
X149298573Y-96797143D01*
X149527144Y-96854286D01*
X149755715Y-96797143D01*
X149927144Y-96682857D01*
X150555715Y-95882857D02*
X150555715Y-97082857D01*
X150555715Y-95940000D02*
X150670001Y-95882857D01*
X150898572Y-95882857D01*
X151012858Y-95940000D01*
X151070001Y-95997143D01*
X151127144Y-96111429D01*
X151127144Y-96454286D01*
X151070001Y-96568571D01*
X151012858Y-96625714D01*
X150898572Y-96682857D01*
X150670001Y-96682857D01*
X150555715Y-96625714D01*
X152155715Y-96682857D02*
X152155715Y-96054286D01*
X152098572Y-95940000D01*
X151984286Y-95882857D01*
X151755715Y-95882857D01*
X151641429Y-95940000D01*
X152155715Y-96625714D02*
X152041429Y-96682857D01*
X151755715Y-96682857D01*
X151641429Y-96625714D01*
X151584286Y-96511429D01*
X151584286Y-96397143D01*
X151641429Y-96282857D01*
X151755715Y-96225714D01*
X152041429Y-96225714D01*
X152155715Y-96168571D01*
X152555715Y-95882857D02*
X153012858Y-95882857D01*
X152727143Y-95482857D02*
X152727143Y-96511429D01*
X152784286Y-96625714D01*
X152898572Y-96682857D01*
X153012858Y-96682857D01*
X153412857Y-96682857D02*
X153412857Y-95882857D01*
X153412857Y-96111429D02*
X153470000Y-95997143D01*
X153527143Y-95940000D01*
X153641429Y-95882857D01*
X153755714Y-95882857D01*
X154155714Y-96682857D02*
X154155714Y-95882857D01*
X154155714Y-95482857D02*
X154098571Y-95540000D01*
X154155714Y-95597143D01*
X154212857Y-95540000D01*
X154155714Y-95482857D01*
X154155714Y-95597143D01*
X155241429Y-96625714D02*
X155127143Y-96682857D01*
X154898572Y-96682857D01*
X154784286Y-96625714D01*
X154727143Y-96568571D01*
X154670000Y-96454286D01*
X154670000Y-96111429D01*
X154727143Y-95997143D01*
X154784286Y-95940000D01*
X154898572Y-95882857D01*
X155127143Y-95882857D01*
X155241429Y-95940000D01*
X155755714Y-96682857D02*
X155755714Y-95482857D01*
X155870000Y-96225714D02*
X156212857Y-96682857D01*
X156212857Y-95882857D02*
X155755714Y-96340000D01*
X156898572Y-96682857D02*
X156784286Y-96625714D01*
X156727143Y-96568571D01*
X156670000Y-96454286D01*
X156670000Y-96111429D01*
X156727143Y-95997143D01*
X156784286Y-95940000D01*
X156898572Y-95882857D01*
X157070000Y-95882857D01*
X157184286Y-95940000D01*
X157241429Y-95997143D01*
X157298572Y-96111429D01*
X157298572Y-96454286D01*
X157241429Y-96568571D01*
X157184286Y-96625714D01*
X157070000Y-96682857D01*
X156898572Y-96682857D01*
X158327143Y-96682857D02*
X158327143Y-95482857D01*
X158327143Y-96625714D02*
X158212857Y-96682857D01*
X157984286Y-96682857D01*
X157870000Y-96625714D01*
X157812857Y-96568571D01*
X157755714Y-96454286D01*
X157755714Y-96111429D01*
X157812857Y-95997143D01*
X157870000Y-95940000D01*
X157984286Y-95882857D01*
X158212857Y-95882857D01*
X158327143Y-95940000D01*
D11*
X149880000Y-98080000D02*
X157380000Y-98080000D01*
X157380000Y-98080000D02*
X157380000Y-102580000D01*
X157380000Y-102580000D02*
X149880000Y-102580000D01*
X149880000Y-102580000D02*
X149880000Y-98080000D01*
D12*
X157149800Y-102870000D02*
X150190200Y-102870000D01*
X150190200Y-113030000D02*
X153365200Y-113030000D01*
X153365200Y-113030000D02*
X153974800Y-113030000D01*
X153974800Y-113030000D02*
X157210000Y-113030000D01*
X153365200Y-113030000D02*
G75*
G02X153974800Y-113030000I304800J0D01*
G01*
D11*
X137160000Y-105410000D02*
X137160000Y-113030000D01*
X139700000Y-105410000D02*
X139700000Y-113030000D01*
X139980000Y-102590000D02*
X139980000Y-104140000D01*
X137160000Y-113030000D02*
X139700000Y-113030000D01*
X139700000Y-105410000D02*
X137160000Y-105410000D01*
X136880000Y-104140000D02*
X136880000Y-102590000D01*
X136880000Y-102590000D02*
X139980000Y-102590000D01*
X147320000Y-109220000D02*
X147320000Y-104140000D01*
X147600000Y-112040000D02*
X146050000Y-112040000D01*
X144780000Y-111760000D02*
X144780000Y-109220000D01*
X144780000Y-109220000D02*
X147320000Y-109220000D01*
X147320000Y-104140000D02*
X142240000Y-104140000D01*
X142240000Y-104140000D02*
X142240000Y-109220000D01*
X147600000Y-112040000D02*
X147600000Y-110490000D01*
X142240000Y-111760000D02*
X144780000Y-111760000D01*
X142240000Y-109220000D02*
X142240000Y-111760000D01*
X165000940Y-107950000D02*
X166001700Y-107950000D01*
X165100000Y-107950000D02*
G75*
G03X165100000Y-107950000I-2499360J0D01*
G01*
X146050000Y-97790000D02*
G75*
G03X146050000Y-97790000I-2540000J0D01*
G01*
X147320000Y-93980000D02*
X147320000Y-101600000D01*
X147320000Y-101600000D02*
X139700000Y-101600000D01*
X139700000Y-101600000D02*
X139700000Y-93980000D01*
X147320000Y-93980000D02*
X139700000Y-93980000D01*
X171640500Y-104830880D02*
X171640500Y-95829120D01*
X175140620Y-104830880D02*
X175140620Y-95829120D01*
X175140620Y-95829120D02*
X160639760Y-95829120D01*
X160639760Y-95829120D02*
X160639760Y-104830880D01*
X160639760Y-104830880D02*
X175140620Y-104830880D01*
D13*
X152653248Y-101757705D02*
X152653248Y-100117705D01*
X154371343Y-101601514D02*
X154293248Y-101679610D01*
X154058962Y-101757705D01*
X153902772Y-101757705D01*
X153668486Y-101679610D01*
X153512295Y-101523419D01*
X153434200Y-101367229D01*
X153356105Y-101054848D01*
X153356105Y-100820562D01*
X153434200Y-100508181D01*
X153512295Y-100351990D01*
X153668486Y-100195800D01*
X153902772Y-100117705D01*
X154058962Y-100117705D01*
X154293248Y-100195800D01*
X154371343Y-100273895D01*
X155933248Y-101757705D02*
X154996105Y-101757705D01*
X155464676Y-101757705D02*
X155464676Y-100117705D01*
X155308486Y-100351990D01*
X155152295Y-100508181D01*
X154996105Y-100586276D01*
D11*
X144676762Y-99123333D02*
X144724381Y-98980476D01*
X144724381Y-98742380D01*
X144676762Y-98647142D01*
X144629143Y-98599523D01*
X144533905Y-98551904D01*
X144438667Y-98551904D01*
X144343429Y-98599523D01*
X144295810Y-98647142D01*
X144248190Y-98742380D01*
X144200571Y-98932857D01*
X144152952Y-99028095D01*
X144105333Y-99075714D01*
X144010095Y-99123333D01*
X143914857Y-99123333D01*
X143819619Y-99075714D01*
X143772000Y-99028095D01*
X143724381Y-98932857D01*
X143724381Y-98694761D01*
X143772000Y-98551904D01*
X143724381Y-98218571D02*
X144724381Y-97980476D01*
X144010095Y-97789999D01*
X144724381Y-97599523D01*
X143724381Y-97361428D01*
X144724381Y-96456666D02*
X144724381Y-97028095D01*
X144724381Y-96742381D02*
X143724381Y-96742381D01*
X143867238Y-96837619D01*
X143962476Y-96932857D01*
X144010095Y-97028095D01*
X157898103Y-101544285D02*
X157945722Y-101591904D01*
X157993341Y-101734761D01*
X157993341Y-101829999D01*
X157945722Y-101972857D01*
X157850484Y-102068095D01*
X157755246Y-102115714D01*
X157564770Y-102163333D01*
X157421912Y-102163333D01*
X157231436Y-102115714D01*
X157136198Y-102068095D01*
X157040960Y-101972857D01*
X156993341Y-101829999D01*
X156993341Y-101734761D01*
X157040960Y-101591904D01*
X157088579Y-101544285D01*
X156993341Y-100925238D02*
X156993341Y-100734761D01*
X157040960Y-100639523D01*
X157136198Y-100544285D01*
X157326674Y-100496666D01*
X157660008Y-100496666D01*
X157850484Y-100544285D01*
X157945722Y-100639523D01*
X157993341Y-100734761D01*
X157993341Y-100925238D01*
X157945722Y-101020476D01*
X157850484Y-101115714D01*
X157660008Y-101163333D01*
X157326674Y-101163333D01*
X157136198Y-101115714D01*
X157040960Y-101020476D01*
X156993341Y-100925238D01*
X157993341Y-100068095D02*
X156993341Y-100068095D01*
X157993341Y-99496666D01*
X156993341Y-99496666D01*
X157993341Y-98496666D02*
X157993341Y-99068095D01*
X157993341Y-98782381D02*
X156993341Y-98782381D01*
X157136198Y-98877619D01*
X157231436Y-98972857D01*
X157279055Y-99068095D01*
M02*
