G04 #@! TF.FileFunction,Copper,L2,Bot,Signal*
%FSLAX46Y46*%
G04 Gerber Fmt 4.6, Leading zero omitted, Abs format (unit mm)*
G04 Created by KiCad (PCBNEW 4.0.1-stable) date Sun 07 Feb 2016 03:44:16 PM PST*
%MOMM*%
G01*
G04 APERTURE LIST*
%ADD10C,0.100000*%
%ADD11R,1.400000X1.400000*%
%ADD12C,1.400000*%
%ADD13R,1.676400X1.676400*%
%ADD14C,1.676400*%
%ADD15R,2.032000X1.727200*%
%ADD16O,2.032000X1.727200*%
%ADD17R,1.727200X1.727200*%
%ADD18O,1.727200X1.727200*%
%ADD19C,1.998980*%
%ADD20C,1.397000*%
%ADD21R,3.500120X3.500120*%
%ADD22C,0.250000*%
%ADD23C,0.254000*%
G04 APERTURE END LIST*
D10*
D11*
X151130000Y-100330000D03*
D12*
X156130000Y-100330000D03*
D13*
X157480000Y-111760000D03*
D14*
X157480000Y-109220000D03*
X157480000Y-106680000D03*
X157480000Y-104140000D03*
X149860000Y-104140000D03*
X149860000Y-106680000D03*
X149860000Y-109220000D03*
X149860000Y-111760000D03*
D15*
X138430000Y-104140000D03*
D16*
X138430000Y-106680000D03*
X138430000Y-109220000D03*
X138430000Y-111760000D03*
D17*
X146050000Y-110490000D03*
D18*
X143510000Y-110490000D03*
X146050000Y-107950000D03*
X143510000Y-107950000D03*
X146050000Y-105410000D03*
X143510000Y-105410000D03*
D19*
X162600640Y-107950000D03*
X167601900Y-107950000D03*
D20*
X146050000Y-101600000D03*
X140970000Y-101600000D03*
X146050000Y-93980000D03*
X140970000Y-93980000D03*
D21*
X161439860Y-100330000D03*
X167439340Y-100330000D03*
X164439600Y-95631000D03*
D22*
X138430000Y-111760000D02*
X142240000Y-111760000D01*
X142240000Y-111760000D02*
X143510000Y-110490000D01*
X157480000Y-104140000D02*
X157480000Y-100204738D01*
X157480000Y-100204738D02*
X159894738Y-97790000D01*
X159894738Y-97790000D02*
X166899400Y-97790000D01*
X166899400Y-97790000D02*
X167439340Y-98329940D01*
X167439340Y-98329940D02*
X167439340Y-100330000D01*
X156130000Y-100330000D02*
X156130000Y-102790000D01*
X156130000Y-102790000D02*
X157480000Y-104140000D01*
X143510000Y-105410000D02*
X145943201Y-102976799D01*
X145943201Y-102976799D02*
X153483201Y-102976799D01*
X153483201Y-102976799D02*
X155430001Y-101029999D01*
X155430001Y-101029999D02*
X156130000Y-100330000D01*
X140970000Y-101600000D02*
X140970000Y-102870000D01*
X140970000Y-102870000D02*
X143510000Y-105410000D01*
X140970000Y-101600000D02*
X140970000Y-93980000D01*
X138430000Y-104140000D02*
X140970000Y-101600000D01*
X167601900Y-107950000D02*
X163791900Y-111760000D01*
X163791900Y-111760000D02*
X157480000Y-111760000D01*
X146050000Y-93980000D02*
X146050000Y-101600000D01*
X146050000Y-105410000D02*
X150311538Y-105410000D01*
X156661538Y-111760000D02*
X157480000Y-111760000D01*
X150311538Y-105410000D02*
X156661538Y-111760000D01*
X143510000Y-107950000D02*
X144780000Y-106680000D01*
X144780000Y-106680000D02*
X144780000Y-104920870D01*
X145560870Y-104140000D02*
X148674607Y-104140000D01*
X144780000Y-104920870D02*
X145560870Y-104140000D01*
X148674607Y-104140000D02*
X149860000Y-104140000D01*
X138430000Y-106680000D02*
X142240000Y-106680000D01*
X142240000Y-106680000D02*
X143510000Y-107950000D01*
X146050000Y-110490000D02*
X150311538Y-110490000D01*
X150311538Y-110490000D02*
X151023201Y-109778337D01*
X151023201Y-109778337D02*
X151023201Y-107843201D01*
X151023201Y-107843201D02*
X150698199Y-107518199D01*
X150698199Y-107518199D02*
X149860000Y-106680000D01*
X149860000Y-109220000D02*
X147320000Y-109220000D01*
X147320000Y-109220000D02*
X146050000Y-107950000D01*
X138430000Y-109220000D02*
X144780000Y-109220000D01*
X144780000Y-109220000D02*
X146050000Y-107950000D01*
D23*
G36*
X139636732Y-93713587D02*
X139636269Y-94244086D01*
X139838854Y-94734380D01*
X140210000Y-95106174D01*
X140210000Y-100474464D01*
X139840173Y-100843647D01*
X139636732Y-101333587D01*
X139636274Y-101858924D01*
X138866238Y-102628960D01*
X137414000Y-102628960D01*
X137178683Y-102673238D01*
X136962559Y-102812310D01*
X136817569Y-103024510D01*
X136766560Y-103276400D01*
X136766560Y-105003600D01*
X136810838Y-105238917D01*
X136949910Y-105455041D01*
X137162110Y-105600031D01*
X137203439Y-105608400D01*
X137185585Y-105620330D01*
X136860729Y-106106511D01*
X136746655Y-106680000D01*
X136860729Y-107253489D01*
X137185585Y-107739670D01*
X137500366Y-107950000D01*
X137185585Y-108160330D01*
X136860729Y-108646511D01*
X136746655Y-109220000D01*
X136860729Y-109793489D01*
X137185585Y-110279670D01*
X137495069Y-110486461D01*
X137079268Y-110857964D01*
X136825291Y-111385209D01*
X136822642Y-111400974D01*
X136943783Y-111633000D01*
X138303000Y-111633000D01*
X138303000Y-111613000D01*
X138557000Y-111613000D01*
X138557000Y-111633000D01*
X139916217Y-111633000D01*
X140037358Y-111400974D01*
X140034709Y-111385209D01*
X139780732Y-110857964D01*
X139770729Y-110849026D01*
X142055042Y-110849026D01*
X142227312Y-111264947D01*
X142621510Y-111696821D01*
X143150973Y-111944968D01*
X143383000Y-111824469D01*
X143383000Y-110617000D01*
X142176183Y-110617000D01*
X142055042Y-110849026D01*
X139770729Y-110849026D01*
X139364931Y-110486461D01*
X139674415Y-110279670D01*
X139874648Y-109980000D01*
X142117574Y-109980000D01*
X142055042Y-110130974D01*
X142176183Y-110363000D01*
X143383000Y-110363000D01*
X143383000Y-110343000D01*
X143637000Y-110343000D01*
X143637000Y-110363000D01*
X143657000Y-110363000D01*
X143657000Y-110617000D01*
X143637000Y-110617000D01*
X143637000Y-111824469D01*
X143869027Y-111944968D01*
X144398490Y-111696821D01*
X144568495Y-111510567D01*
X144583238Y-111588917D01*
X144722310Y-111805041D01*
X144934510Y-111950031D01*
X145186400Y-112001040D01*
X146913600Y-112001040D01*
X147148917Y-111956762D01*
X147365041Y-111817690D01*
X147510031Y-111605490D01*
X147561040Y-111353600D01*
X147561040Y-111250000D01*
X148477864Y-111250000D01*
X148375023Y-111534097D01*
X148401611Y-112119569D01*
X148574510Y-112536983D01*
X148824587Y-112615808D01*
X149680395Y-111760000D01*
X149666253Y-111745858D01*
X149845858Y-111566253D01*
X149860000Y-111580395D01*
X149874143Y-111566253D01*
X150053748Y-111745858D01*
X150039605Y-111760000D01*
X150895413Y-112615808D01*
X151145490Y-112536983D01*
X151344977Y-111985903D01*
X151318389Y-111400431D01*
X151145490Y-110983017D01*
X150953758Y-110922582D01*
X151560602Y-110315738D01*
X151725349Y-110069177D01*
X151754595Y-109922148D01*
X151783201Y-109778337D01*
X151783201Y-107956465D01*
X155994360Y-112167624D01*
X155994360Y-112598200D01*
X156038638Y-112833517D01*
X156177710Y-113049641D01*
X156389910Y-113194631D01*
X156641800Y-113245640D01*
X158318200Y-113245640D01*
X158553517Y-113201362D01*
X158769641Y-113062290D01*
X158914631Y-112850090D01*
X158965640Y-112598200D01*
X158965640Y-112520000D01*
X163791900Y-112520000D01*
X164082739Y-112462148D01*
X164329301Y-112297401D01*
X167110817Y-109515885D01*
X167275353Y-109584206D01*
X167925594Y-109584774D01*
X168526555Y-109336462D01*
X168986746Y-108877073D01*
X169236106Y-108276547D01*
X169236674Y-107626306D01*
X168988362Y-107025345D01*
X168528973Y-106565154D01*
X167928447Y-106315794D01*
X167278206Y-106315226D01*
X166677245Y-106563538D01*
X166217054Y-107022927D01*
X165967694Y-107623453D01*
X165967126Y-108273694D01*
X166036209Y-108440889D01*
X163477098Y-111000000D01*
X158965640Y-111000000D01*
X158965640Y-110921800D01*
X158921362Y-110686483D01*
X158782290Y-110470359D01*
X158570090Y-110325369D01*
X158476855Y-110306488D01*
X158728190Y-110055591D01*
X158952944Y-109514323D01*
X158953303Y-109102163D01*
X161628083Y-109102163D01*
X161726682Y-109368965D01*
X162336222Y-109595401D01*
X162986017Y-109571341D01*
X163474598Y-109368965D01*
X163573197Y-109102163D01*
X162600640Y-108129605D01*
X161628083Y-109102163D01*
X158953303Y-109102163D01*
X158953455Y-108928248D01*
X158729647Y-108386589D01*
X158315591Y-107971810D01*
X158263608Y-107950225D01*
X158313411Y-107929647D01*
X158557902Y-107685582D01*
X160955239Y-107685582D01*
X160979299Y-108335377D01*
X161181675Y-108823958D01*
X161448477Y-108922557D01*
X162421035Y-107950000D01*
X162780245Y-107950000D01*
X163752803Y-108922557D01*
X164019605Y-108823958D01*
X164246041Y-108214418D01*
X164221981Y-107564623D01*
X164019605Y-107076042D01*
X163752803Y-106977443D01*
X162780245Y-107950000D01*
X162421035Y-107950000D01*
X161448477Y-106977443D01*
X161181675Y-107076042D01*
X160955239Y-107685582D01*
X158557902Y-107685582D01*
X158728190Y-107515591D01*
X158952944Y-106974323D01*
X158953097Y-106797837D01*
X161628083Y-106797837D01*
X162600640Y-107770395D01*
X163573197Y-106797837D01*
X163474598Y-106531035D01*
X162865058Y-106304599D01*
X162215263Y-106328659D01*
X161726682Y-106531035D01*
X161628083Y-106797837D01*
X158953097Y-106797837D01*
X158953455Y-106388248D01*
X158729647Y-105846589D01*
X158315591Y-105431810D01*
X158263608Y-105410225D01*
X158313411Y-105389647D01*
X158728190Y-104975591D01*
X158952944Y-104434323D01*
X158953455Y-103848248D01*
X158729647Y-103306589D01*
X158315591Y-102891810D01*
X158240000Y-102860422D01*
X158240000Y-100615750D01*
X159054800Y-100615750D01*
X159054800Y-102206370D01*
X159151473Y-102439759D01*
X159330102Y-102618387D01*
X159563491Y-102715060D01*
X161154110Y-102715060D01*
X161312860Y-102556310D01*
X161312860Y-100457000D01*
X161566860Y-100457000D01*
X161566860Y-102556310D01*
X161725610Y-102715060D01*
X163316229Y-102715060D01*
X163549618Y-102618387D01*
X163728247Y-102439759D01*
X163824920Y-102206370D01*
X163824920Y-100615750D01*
X163666170Y-100457000D01*
X161566860Y-100457000D01*
X161312860Y-100457000D01*
X159213550Y-100457000D01*
X159054800Y-100615750D01*
X158240000Y-100615750D01*
X158240000Y-100519540D01*
X159054800Y-99704740D01*
X159054800Y-100044250D01*
X159213550Y-100203000D01*
X161312860Y-100203000D01*
X161312860Y-100183000D01*
X161566860Y-100183000D01*
X161566860Y-100203000D01*
X163666170Y-100203000D01*
X163824920Y-100044250D01*
X163824920Y-98550000D01*
X165047903Y-98550000D01*
X165041840Y-98579940D01*
X165041840Y-102080060D01*
X165086118Y-102315377D01*
X165225190Y-102531501D01*
X165437390Y-102676491D01*
X165689280Y-102727500D01*
X169189400Y-102727500D01*
X169424717Y-102683222D01*
X169640841Y-102544150D01*
X169785831Y-102331950D01*
X169836840Y-102080060D01*
X169836840Y-98579940D01*
X169792562Y-98344623D01*
X169653490Y-98128499D01*
X169441290Y-97983509D01*
X169189400Y-97932500D01*
X168070260Y-97932500D01*
X167976741Y-97792539D01*
X167436801Y-97252599D01*
X167190239Y-97087852D01*
X166899400Y-97030000D01*
X166837100Y-97030000D01*
X166837100Y-93880940D01*
X166792822Y-93645623D01*
X166663725Y-93445000D01*
X170715000Y-93445000D01*
X170715000Y-113565000D01*
X136625000Y-113565000D01*
X136625000Y-112119026D01*
X136822642Y-112119026D01*
X136825291Y-112134791D01*
X137079268Y-112662036D01*
X137515680Y-113051954D01*
X138068087Y-113245184D01*
X138303000Y-113100924D01*
X138303000Y-111887000D01*
X138557000Y-111887000D01*
X138557000Y-113100924D01*
X138791913Y-113245184D01*
X139344320Y-113051954D01*
X139631451Y-112795413D01*
X149004192Y-112795413D01*
X149083017Y-113045490D01*
X149634097Y-113244977D01*
X150219569Y-113218389D01*
X150636983Y-113045490D01*
X150715808Y-112795413D01*
X149860000Y-111939605D01*
X149004192Y-112795413D01*
X139631451Y-112795413D01*
X139780732Y-112662036D01*
X140034709Y-112134791D01*
X140037358Y-112119026D01*
X139916217Y-111887000D01*
X138557000Y-111887000D01*
X138303000Y-111887000D01*
X136943783Y-111887000D01*
X136822642Y-112119026D01*
X136625000Y-112119026D01*
X136625000Y-93445000D01*
X139748259Y-93445000D01*
X139636732Y-93713587D01*
X139636732Y-93713587D01*
G37*
X139636732Y-93713587D02*
X139636269Y-94244086D01*
X139838854Y-94734380D01*
X140210000Y-95106174D01*
X140210000Y-100474464D01*
X139840173Y-100843647D01*
X139636732Y-101333587D01*
X139636274Y-101858924D01*
X138866238Y-102628960D01*
X137414000Y-102628960D01*
X137178683Y-102673238D01*
X136962559Y-102812310D01*
X136817569Y-103024510D01*
X136766560Y-103276400D01*
X136766560Y-105003600D01*
X136810838Y-105238917D01*
X136949910Y-105455041D01*
X137162110Y-105600031D01*
X137203439Y-105608400D01*
X137185585Y-105620330D01*
X136860729Y-106106511D01*
X136746655Y-106680000D01*
X136860729Y-107253489D01*
X137185585Y-107739670D01*
X137500366Y-107950000D01*
X137185585Y-108160330D01*
X136860729Y-108646511D01*
X136746655Y-109220000D01*
X136860729Y-109793489D01*
X137185585Y-110279670D01*
X137495069Y-110486461D01*
X137079268Y-110857964D01*
X136825291Y-111385209D01*
X136822642Y-111400974D01*
X136943783Y-111633000D01*
X138303000Y-111633000D01*
X138303000Y-111613000D01*
X138557000Y-111613000D01*
X138557000Y-111633000D01*
X139916217Y-111633000D01*
X140037358Y-111400974D01*
X140034709Y-111385209D01*
X139780732Y-110857964D01*
X139770729Y-110849026D01*
X142055042Y-110849026D01*
X142227312Y-111264947D01*
X142621510Y-111696821D01*
X143150973Y-111944968D01*
X143383000Y-111824469D01*
X143383000Y-110617000D01*
X142176183Y-110617000D01*
X142055042Y-110849026D01*
X139770729Y-110849026D01*
X139364931Y-110486461D01*
X139674415Y-110279670D01*
X139874648Y-109980000D01*
X142117574Y-109980000D01*
X142055042Y-110130974D01*
X142176183Y-110363000D01*
X143383000Y-110363000D01*
X143383000Y-110343000D01*
X143637000Y-110343000D01*
X143637000Y-110363000D01*
X143657000Y-110363000D01*
X143657000Y-110617000D01*
X143637000Y-110617000D01*
X143637000Y-111824469D01*
X143869027Y-111944968D01*
X144398490Y-111696821D01*
X144568495Y-111510567D01*
X144583238Y-111588917D01*
X144722310Y-111805041D01*
X144934510Y-111950031D01*
X145186400Y-112001040D01*
X146913600Y-112001040D01*
X147148917Y-111956762D01*
X147365041Y-111817690D01*
X147510031Y-111605490D01*
X147561040Y-111353600D01*
X147561040Y-111250000D01*
X148477864Y-111250000D01*
X148375023Y-111534097D01*
X148401611Y-112119569D01*
X148574510Y-112536983D01*
X148824587Y-112615808D01*
X149680395Y-111760000D01*
X149666253Y-111745858D01*
X149845858Y-111566253D01*
X149860000Y-111580395D01*
X149874143Y-111566253D01*
X150053748Y-111745858D01*
X150039605Y-111760000D01*
X150895413Y-112615808D01*
X151145490Y-112536983D01*
X151344977Y-111985903D01*
X151318389Y-111400431D01*
X151145490Y-110983017D01*
X150953758Y-110922582D01*
X151560602Y-110315738D01*
X151725349Y-110069177D01*
X151754595Y-109922148D01*
X151783201Y-109778337D01*
X151783201Y-107956465D01*
X155994360Y-112167624D01*
X155994360Y-112598200D01*
X156038638Y-112833517D01*
X156177710Y-113049641D01*
X156389910Y-113194631D01*
X156641800Y-113245640D01*
X158318200Y-113245640D01*
X158553517Y-113201362D01*
X158769641Y-113062290D01*
X158914631Y-112850090D01*
X158965640Y-112598200D01*
X158965640Y-112520000D01*
X163791900Y-112520000D01*
X164082739Y-112462148D01*
X164329301Y-112297401D01*
X167110817Y-109515885D01*
X167275353Y-109584206D01*
X167925594Y-109584774D01*
X168526555Y-109336462D01*
X168986746Y-108877073D01*
X169236106Y-108276547D01*
X169236674Y-107626306D01*
X168988362Y-107025345D01*
X168528973Y-106565154D01*
X167928447Y-106315794D01*
X167278206Y-106315226D01*
X166677245Y-106563538D01*
X166217054Y-107022927D01*
X165967694Y-107623453D01*
X165967126Y-108273694D01*
X166036209Y-108440889D01*
X163477098Y-111000000D01*
X158965640Y-111000000D01*
X158965640Y-110921800D01*
X158921362Y-110686483D01*
X158782290Y-110470359D01*
X158570090Y-110325369D01*
X158476855Y-110306488D01*
X158728190Y-110055591D01*
X158952944Y-109514323D01*
X158953303Y-109102163D01*
X161628083Y-109102163D01*
X161726682Y-109368965D01*
X162336222Y-109595401D01*
X162986017Y-109571341D01*
X163474598Y-109368965D01*
X163573197Y-109102163D01*
X162600640Y-108129605D01*
X161628083Y-109102163D01*
X158953303Y-109102163D01*
X158953455Y-108928248D01*
X158729647Y-108386589D01*
X158315591Y-107971810D01*
X158263608Y-107950225D01*
X158313411Y-107929647D01*
X158557902Y-107685582D01*
X160955239Y-107685582D01*
X160979299Y-108335377D01*
X161181675Y-108823958D01*
X161448477Y-108922557D01*
X162421035Y-107950000D01*
X162780245Y-107950000D01*
X163752803Y-108922557D01*
X164019605Y-108823958D01*
X164246041Y-108214418D01*
X164221981Y-107564623D01*
X164019605Y-107076042D01*
X163752803Y-106977443D01*
X162780245Y-107950000D01*
X162421035Y-107950000D01*
X161448477Y-106977443D01*
X161181675Y-107076042D01*
X160955239Y-107685582D01*
X158557902Y-107685582D01*
X158728190Y-107515591D01*
X158952944Y-106974323D01*
X158953097Y-106797837D01*
X161628083Y-106797837D01*
X162600640Y-107770395D01*
X163573197Y-106797837D01*
X163474598Y-106531035D01*
X162865058Y-106304599D01*
X162215263Y-106328659D01*
X161726682Y-106531035D01*
X161628083Y-106797837D01*
X158953097Y-106797837D01*
X158953455Y-106388248D01*
X158729647Y-105846589D01*
X158315591Y-105431810D01*
X158263608Y-105410225D01*
X158313411Y-105389647D01*
X158728190Y-104975591D01*
X158952944Y-104434323D01*
X158953455Y-103848248D01*
X158729647Y-103306589D01*
X158315591Y-102891810D01*
X158240000Y-102860422D01*
X158240000Y-100615750D01*
X159054800Y-100615750D01*
X159054800Y-102206370D01*
X159151473Y-102439759D01*
X159330102Y-102618387D01*
X159563491Y-102715060D01*
X161154110Y-102715060D01*
X161312860Y-102556310D01*
X161312860Y-100457000D01*
X161566860Y-100457000D01*
X161566860Y-102556310D01*
X161725610Y-102715060D01*
X163316229Y-102715060D01*
X163549618Y-102618387D01*
X163728247Y-102439759D01*
X163824920Y-102206370D01*
X163824920Y-100615750D01*
X163666170Y-100457000D01*
X161566860Y-100457000D01*
X161312860Y-100457000D01*
X159213550Y-100457000D01*
X159054800Y-100615750D01*
X158240000Y-100615750D01*
X158240000Y-100519540D01*
X159054800Y-99704740D01*
X159054800Y-100044250D01*
X159213550Y-100203000D01*
X161312860Y-100203000D01*
X161312860Y-100183000D01*
X161566860Y-100183000D01*
X161566860Y-100203000D01*
X163666170Y-100203000D01*
X163824920Y-100044250D01*
X163824920Y-98550000D01*
X165047903Y-98550000D01*
X165041840Y-98579940D01*
X165041840Y-102080060D01*
X165086118Y-102315377D01*
X165225190Y-102531501D01*
X165437390Y-102676491D01*
X165689280Y-102727500D01*
X169189400Y-102727500D01*
X169424717Y-102683222D01*
X169640841Y-102544150D01*
X169785831Y-102331950D01*
X169836840Y-102080060D01*
X169836840Y-98579940D01*
X169792562Y-98344623D01*
X169653490Y-98128499D01*
X169441290Y-97983509D01*
X169189400Y-97932500D01*
X168070260Y-97932500D01*
X167976741Y-97792539D01*
X167436801Y-97252599D01*
X167190239Y-97087852D01*
X166899400Y-97030000D01*
X166837100Y-97030000D01*
X166837100Y-93880940D01*
X166792822Y-93645623D01*
X166663725Y-93445000D01*
X170715000Y-93445000D01*
X170715000Y-113565000D01*
X136625000Y-113565000D01*
X136625000Y-112119026D01*
X136822642Y-112119026D01*
X136825291Y-112134791D01*
X137079268Y-112662036D01*
X137515680Y-113051954D01*
X138068087Y-113245184D01*
X138303000Y-113100924D01*
X138303000Y-111887000D01*
X138557000Y-111887000D01*
X138557000Y-113100924D01*
X138791913Y-113245184D01*
X139344320Y-113051954D01*
X139631451Y-112795413D01*
X149004192Y-112795413D01*
X149083017Y-113045490D01*
X149634097Y-113244977D01*
X150219569Y-113218389D01*
X150636983Y-113045490D01*
X150715808Y-112795413D01*
X149860000Y-111939605D01*
X149004192Y-112795413D01*
X139631451Y-112795413D01*
X139780732Y-112662036D01*
X140034709Y-112134791D01*
X140037358Y-112119026D01*
X139916217Y-111887000D01*
X138557000Y-111887000D01*
X138303000Y-111887000D01*
X136943783Y-111887000D01*
X136822642Y-112119026D01*
X136625000Y-112119026D01*
X136625000Y-93445000D01*
X139748259Y-93445000D01*
X139636732Y-93713587D01*
G36*
X162093109Y-93629050D02*
X162042100Y-93880940D01*
X162042100Y-97030000D01*
X159894738Y-97030000D01*
X159603898Y-97087852D01*
X159357337Y-97252599D01*
X157148891Y-99461045D01*
X156887204Y-99198902D01*
X156396713Y-98995232D01*
X155865617Y-98994769D01*
X155374771Y-99197582D01*
X154998902Y-99572796D01*
X154795232Y-100063287D01*
X154794772Y-100590426D01*
X153168399Y-102216799D01*
X147237775Y-102216799D01*
X147383268Y-101866413D01*
X147383731Y-101335914D01*
X147181146Y-100845620D01*
X146951677Y-100615750D01*
X149795000Y-100615750D01*
X149795000Y-101156310D01*
X149891673Y-101389699D01*
X150070302Y-101568327D01*
X150303691Y-101665000D01*
X150844250Y-101665000D01*
X151003000Y-101506250D01*
X151003000Y-100457000D01*
X151257000Y-100457000D01*
X151257000Y-101506250D01*
X151415750Y-101665000D01*
X151956309Y-101665000D01*
X152189698Y-101568327D01*
X152368327Y-101389699D01*
X152465000Y-101156310D01*
X152465000Y-100615750D01*
X152306250Y-100457000D01*
X151257000Y-100457000D01*
X151003000Y-100457000D01*
X149953750Y-100457000D01*
X149795000Y-100615750D01*
X146951677Y-100615750D01*
X146810000Y-100473826D01*
X146810000Y-99503690D01*
X149795000Y-99503690D01*
X149795000Y-100044250D01*
X149953750Y-100203000D01*
X151003000Y-100203000D01*
X151003000Y-99153750D01*
X151257000Y-99153750D01*
X151257000Y-100203000D01*
X152306250Y-100203000D01*
X152465000Y-100044250D01*
X152465000Y-99503690D01*
X152368327Y-99270301D01*
X152189698Y-99091673D01*
X151956309Y-98995000D01*
X151415750Y-98995000D01*
X151257000Y-99153750D01*
X151003000Y-99153750D01*
X150844250Y-98995000D01*
X150303691Y-98995000D01*
X150070302Y-99091673D01*
X149891673Y-99270301D01*
X149795000Y-99503690D01*
X146810000Y-99503690D01*
X146810000Y-95105536D01*
X147179827Y-94736353D01*
X147383268Y-94246413D01*
X147383731Y-93715914D01*
X147271792Y-93445000D01*
X162218865Y-93445000D01*
X162093109Y-93629050D01*
X162093109Y-93629050D01*
G37*
X162093109Y-93629050D02*
X162042100Y-93880940D01*
X162042100Y-97030000D01*
X159894738Y-97030000D01*
X159603898Y-97087852D01*
X159357337Y-97252599D01*
X157148891Y-99461045D01*
X156887204Y-99198902D01*
X156396713Y-98995232D01*
X155865617Y-98994769D01*
X155374771Y-99197582D01*
X154998902Y-99572796D01*
X154795232Y-100063287D01*
X154794772Y-100590426D01*
X153168399Y-102216799D01*
X147237775Y-102216799D01*
X147383268Y-101866413D01*
X147383731Y-101335914D01*
X147181146Y-100845620D01*
X146951677Y-100615750D01*
X149795000Y-100615750D01*
X149795000Y-101156310D01*
X149891673Y-101389699D01*
X150070302Y-101568327D01*
X150303691Y-101665000D01*
X150844250Y-101665000D01*
X151003000Y-101506250D01*
X151003000Y-100457000D01*
X151257000Y-100457000D01*
X151257000Y-101506250D01*
X151415750Y-101665000D01*
X151956309Y-101665000D01*
X152189698Y-101568327D01*
X152368327Y-101389699D01*
X152465000Y-101156310D01*
X152465000Y-100615750D01*
X152306250Y-100457000D01*
X151257000Y-100457000D01*
X151003000Y-100457000D01*
X149953750Y-100457000D01*
X149795000Y-100615750D01*
X146951677Y-100615750D01*
X146810000Y-100473826D01*
X146810000Y-99503690D01*
X149795000Y-99503690D01*
X149795000Y-100044250D01*
X149953750Y-100203000D01*
X151003000Y-100203000D01*
X151003000Y-99153750D01*
X151257000Y-99153750D01*
X151257000Y-100203000D01*
X152306250Y-100203000D01*
X152465000Y-100044250D01*
X152465000Y-99503690D01*
X152368327Y-99270301D01*
X152189698Y-99091673D01*
X151956309Y-98995000D01*
X151415750Y-98995000D01*
X151257000Y-99153750D01*
X151003000Y-99153750D01*
X150844250Y-98995000D01*
X150303691Y-98995000D01*
X150070302Y-99091673D01*
X149891673Y-99270301D01*
X149795000Y-99503690D01*
X146810000Y-99503690D01*
X146810000Y-95105536D01*
X147179827Y-94736353D01*
X147383268Y-94246413D01*
X147383731Y-93715914D01*
X147271792Y-93445000D01*
X162218865Y-93445000D01*
X162093109Y-93629050D01*
M02*
