M48
;DRILL file {KiCad 4.0.1-stable} date Sun 07 Feb 2016 03:44:14 PM PST
;FORMAT={-:-/ absolute / inch / decimal}
FMAT,2
INCH,TZ
T1C0.032
T2C0.035
T3C0.039
T4C0.040
T5C0.044
T6C0.047
%
G90
G05
M72
T1
X5.55Y-3.7
X5.55Y-4.
X5.75Y-3.7
X5.75Y-4.
T2
X5.95Y-3.95
X6.1469Y-3.95
T3
X6.4016Y-4.25
X6.5985Y-4.25
T4
X5.45Y-4.1
X5.45Y-4.2
X5.45Y-4.3
X5.45Y-4.4
X5.65Y-4.15
X5.65Y-4.25
X5.65Y-4.35
X5.75Y-4.15
X5.75Y-4.25
X5.75Y-4.35
T5
X5.9Y-4.1
X5.9Y-4.2
X5.9Y-4.3
X5.9Y-4.4
X6.2Y-4.1
X6.2Y-4.2
X6.2Y-4.3
X6.2Y-4.4
T6
X6.3559Y-3.95
X6.474Y-3.765
X6.5921Y-3.95
T0
M30
